<svg width="20" height="20" viewBox="0 0 20 20" fill="none" xmlns="http://www.w3.org/2000/svg">
<path d="M4.82474 2.41736C4.82474 3.75242 3.74469 4.83471 2.41237 4.83471C1.08006 4.83471 0 3.75242 0 2.41736C0 1.08229 1.08006 0 2.41237 0C3.74469 0 4.82474 1.08229 4.82474 2.41736Z" fill="white"/>
<path d="M0.329897 6.61157H4.45361V20H0.329897V6.61157Z" fill="white"/>
<path d="M11.0928 6.61157H6.96907V20H11.0928C11.0928 20 11.0928 15.7851 11.0928 13.1498C11.0928 11.568 11.5969 9.97934 13.6082 9.97934C15.8814 9.97934 15.8677 12.0493 15.8571 13.653C15.8432 15.7492 15.8763 17.8884 15.8763 20H20V12.9339C19.9651 8.42197 18.8678 6.34298 15.2577 6.34298C13.1139 6.34298 11.7849 7.3858 11.0928 8.32927V6.61157Z" fill="white"/>
</svg>
