<svg width="260" height="260" viewBox="0 0 260 260" fill="none" xmlns="http://www.w3.org/2000/svg">
<path d="M130 8.58703e-05C147.072 8.5124e-05 163.976 3.36263 179.749 9.89574C195.521 16.4289 209.852 26.0046 221.924 38.0762C233.995 50.1478 243.571 64.4789 250.104 80.2512C256.637 96.0235 260 112.928 260 130L234 130C234 116.343 231.31 102.819 226.083 90.201C220.857 77.5831 213.196 66.1182 203.539 56.461C193.882 46.8037 182.417 39.1431 169.799 33.9166C157.181 28.6901 143.657 26.0001 130 26.0001L130 8.58703e-05Z" fill="white"/>
<path d="M130 260C112.928 260 96.0234 256.637 80.2511 250.104C64.4788 243.571 50.1477 233.995 38.0761 221.924C26.0045 209.852 16.4287 195.521 9.89563 179.749C3.36252 163.976 -2.48351e-05 147.072 -2.48351e-05 130L26 130C26 143.657 28.69 157.181 33.9165 169.799C39.143 182.417 46.8036 193.882 56.4609 203.539C66.1181 213.196 77.583 220.857 90.2009 226.083C102.819 231.31 116.342 234 130 234L130 260Z" fill="#75DFFB" fill-opacity="0.48"/>
</svg>
