<svg width="640" height="480" viewBox="0 0 640 480" fill="none" xmlns="http://www.w3.org/2000/svg">
<path d="M0 0L640 0L640 480L0 480L0 0Z" fill="#E7EEFF" fill-opacity="0.64"/>
<path d="M0 0L640 0L640 480L0 480L0 0Z" stroke="white"/>
<path fill-rule="evenodd" clip-rule="evenodd" d="M120.693 287.868L174.974 256.739L174.792 194.166L120.33 162.722L66.0495 193.851L66.2312 256.424L120.693 287.868ZM120.651 273.428L162.406 249.483L162.266 201.349L120.372 177.162L78.6177 201.107L78.7575 249.24L120.651 273.428Z" fill="white" fill-opacity="0.72"/>
<path d="M162.406 249.483L120.651 273.428L78.7575 249.24L78.6177 201.107L120.372 177.162L162.266 201.349L162.406 249.483Z" fill="white" fill-opacity="0.72"/>
<path d="M554 342.2L621.6 381.6L639.6 371.109L639.6 352.924L621.6 363.415L569.6 333.108L569.6 272.492L621.6 242.185L639.6 252.676L639.6 234.491L621.6 224L554 263.4L554 342.2Z" fill="white" fill-opacity="0.72"/>
<path d="M111.5 382L44 421.24L44 480L59.5769 480L59.5769 430.295L111.5 400.111L163.423 430.295L163.423 480L179 480L179 421.24L111.5 382Z" fill="white" fill-opacity="0.72"/>
<path fill-rule="evenodd" clip-rule="evenodd" d="M374 147.295L408.004 167.06L442.008 147.295L442.008 107.765L408.004 88L374 107.765L374 147.295ZM381.847 142.734L408.004 157.938L434.161 142.734L434.161 112.326L408.004 97.1223L381.847 112.326L381.847 142.734Z" fill="white" fill-opacity="0.72"/>
<path fill-rule="evenodd" clip-rule="evenodd" d="M423 77.6L440.6 87.8L458.2 77.6L458.2 57.2L440.6 47L423 57.2L423 77.6ZM427.062 75.2462L440.6 83.0923L454.138 75.2462L454.138 59.5538L440.6 51.7077L427.062 59.5538L427.062 75.2462Z" fill="white" fill-opacity="0.72"/>
<path fill-rule="evenodd" clip-rule="evenodd" d="M140.992 164.337L161.01 152.824L160.972 129.731L140.916 118.151L120.898 129.665L120.936 152.758L140.992 164.337ZM140.983 159.008L156.382 150.151L156.352 132.388L140.925 123.48L125.526 132.337L125.555 150.101L140.983 159.008Z" fill="white" fill-opacity="0.72"/>
<path fill-rule="evenodd" clip-rule="evenodd" d="M114.084 123.975L134.102 112.462L134.064 89.369L114.008 77.7897L93.99 89.3032L94.028 112.396L114.084 123.975ZM114.075 118.646L129.474 109.79L129.444 92.026L114.017 83.1188L98.6183 91.9754L98.6475 109.739L114.075 118.646Z" fill="white" fill-opacity="0.72"/>
<rect x="253.5" y="111.5" width="187" height="234" rx="8.5" fill="white" stroke="#131B30"/>
<path d="M255.82 325.32H438.18V335.18C438.18 339.598 434.598 343.18 430.18 343.18H263.82C259.402 343.18 255.82 339.598 255.82 335.18V325.32Z" fill="#769BE9"/>
<path d="M255.82 325.32H438.18V335.18C438.18 339.598 434.598 343.18 430.18 343.18H263.82C259.402 343.18 255.82 339.598 255.82 335.18V325.32Z" fill="url(#paint0_linear)" fill-opacity="0.2"/>
<path d="M255.82 121.82C255.82 117.402 259.402 113.82 263.82 113.82H430.18C434.598 113.82 438.18 117.402 438.18 121.82V143.9H255.82V121.82Z" fill="#769BE9"/>
<path d="M255.82 121.82C255.82 117.402 259.402 113.82 263.82 113.82H430.18C434.598 113.82 438.18 117.402 438.18 121.82V143.9H255.82V121.82Z" fill="url(#paint1_linear)" fill-opacity="0.2"/>
<rect x="413.74" y="117.58" width="4.7" height="3.76" rx="1.88" fill="white"/>
<rect x="420.32" y="117.58" width="4.7" height="3.76" rx="1.88" fill="white"/>
<rect x="426.9" y="117.58" width="4.7" height="3.76" rx="1.88" fill="white"/>
<rect x="286.84" y="126.04" width="120.32" height="5.64" fill="#CAD9F9"/>
<rect x="286.84" y="137.32" width="15.04" height="2.82" fill="#CAD9F9"/>
<rect x="307.52" y="137.32" width="15.04" height="2.82" fill="#CAD9F9"/>
<rect x="328.2" y="137.32" width="15.04" height="2.82" fill="#CAD9F9"/>
<rect x="348.88" y="137.32" width="15.04" height="2.82" fill="#CAD9F9"/>
<rect x="369.56" y="137.32" width="15.04" height="2.82" fill="#CAD9F9"/>
<rect x="392.12" y="137.32" width="15.04" height="2.82" fill="#CAD9F9"/>
<rect x="255.82" y="143.9" width="182.36" height="181.42" fill="white"/>
<rect x="286.84" y="217.22" width="52.64" height="4.7" fill="#769BE9" fill-opacity="0.24"/>
<rect x="286.84" y="226.62" width="52.64" height="4.7" fill="#769BE9" fill-opacity="0.24"/>
<rect x="286.84" y="236.02" width="25.38" height="4.7" fill="#769BE9" fill-opacity="0.24"/>
<rect x="354.52" y="217.22" width="52.64" height="23.5" rx="4" fill="#769BE9" fill-opacity="0.24"/>
<path d="M286.84 143.9H407.16V178.2C407.16 182.618 403.578 186.2 399.16 186.2H294.84C290.422 186.2 286.84 182.618 286.84 178.2V143.9Z" fill="#769BE9" fill-opacity="0.24"/>
<rect x="303.88" y="169.4" width="33.6" height="33.6" fill="#769BE9" stroke="white" stroke-width="4"/>
<rect x="373.32" y="273.62" width="15.1264" height="15.1264" fill="#769BE9"/>
<rect x="373.32" y="273.62" width="15.1264" height="15.1264" fill="#769BE9"/>
<rect x="354.52" y="254.82" width="15.1264" height="15.1264" fill="#769BE9"/>
<rect x="373.277" y="254.82" width="15.1264" height="15.1264" fill="#769BE9" fill-opacity="0.24"/>
<rect x="392.034" y="254.82" width="15.1264" height="15.1264" fill="#769BE9" fill-opacity="0.24"/>
<rect x="354.52" y="273.577" width="15.1264" height="15.1264" fill="#769BE9" fill-opacity="0.24"/>
<rect x="373.277" y="273.577" width="15.1264" height="15.1264" fill="#769BE9"/>
<rect x="392.034" y="273.577" width="15.1264" height="15.1264" fill="#769BE9" fill-opacity="0.24"/>
<rect x="354.52" y="292.334" width="15.1264" height="15.1264" fill="#769BE9" fill-opacity="0.24"/>
<rect x="373.277" y="292.334" width="15.1264" height="15.1264" fill="#769BE9" fill-opacity="0.24"/>
<rect x="392.034" y="292.334" width="15.1264" height="15.1264" fill="#769BE9" fill-opacity="0.24"/>
<rect x="286.84" y="254.82" width="52.64" height="23.5" fill="#769BE9" fill-opacity="0.1"/>
<rect x="289.66" y="258.58" width="5.64" height="5.64" rx="2.82" fill="#87E385"/>
<rect x="289.66" y="267.98" width="5.64" height="5.64" rx="2.82" fill="#87E385"/>
<rect x="297.18" y="258.58" width="37.6" height="5.64" fill="white"/>
<rect x="297.18" y="267.98" width="37.6" height="5.64" fill="white"/>
<rect x="286.84" y="283.96" width="52.64" height="23.5" fill="#769BE9" fill-opacity="0.1"/>
<rect x="289.66" y="288.66" width="5.64" height="5.64" rx="2.82" fill="#769BE9"/>
<rect x="289.66" y="298.06" width="5.64" height="5.64" rx="2.82" fill="#769BE9"/>
<rect x="297.18" y="288.66" width="37.6" height="5.64" fill="white"/>
<rect x="297.18" y="298.06" width="37.6" height="5.64" fill="white"/>
<path d="M193.153 357.193C191.292 358.548 190.673 361.159 191.159 363.485C191.583 365.54 194.595 366.594 196.839 366.198C199.434 365.739 201.377 364.682 202.581 362.754C205.016 358.848 207.522 357.95 211.337 357.822" stroke="#8A8B8A" stroke-width="2" stroke-linecap="round" stroke-linejoin="round"/>
<path d="M203.153 356.74C200.325 359.533 194.721 359.343 193.026 357.846C190.769 355.853 191.314 351.689 194.146 348.894C196.971 346.102 201.283 345.596 203.769 347.76C206.256 349.927 205.983 353.945 203.153 356.74Z" fill="#8A8B8A"/>
<path d="M193.153 356.891C193.153 356.891 194.334 354.693 196.256 353.59" stroke="#4D4E4C" stroke-width="2" stroke-linecap="round" stroke-linejoin="round"/>
<path d="M198.539 351.7C199.009 352.182 198.713 353.134 197.887 353.83C197.057 354.52 196.004 354.691 195.536 354.211C195.069 353.731 195.363 352.777 196.191 352.084C197.023 351.394 198.072 351.22 198.539 351.7Z" fill="#131B30"/>
<path d="M203.974 352.564C204.414 353.21 203.718 354.48 205.207 354.112C206.79 353.719 208.783 350.811 209.186 349.375C210.334 345.314 205.638 342.097 201.778 342.784C198.727 343.332 192.397 347.402 194.495 351.251C195.494 353.086 198.282 354.759 200.414 353.913C201.19 353.605 203.119 351.71 203.89 352.462C203.922 352.495 203.949 352.528 203.974 352.564Z" fill="#E3B289"/>
<path d="M251.164 308.662C248.801 308.201 245.121 306.655 243.954 303.805C243.689 303.155 243.456 297.353 243.456 294.86H233.423C233.423 297.353 233.188 303.155 232.922 303.805C231.754 306.655 228.076 308.201 225.716 308.662C225.012 308.802 224.389 308.993 223.842 309.228V318.109H253.036V309.228C252.486 308.993 251.868 308.802 251.164 308.662Z" fill="#E3B894"/>
<path d="M267.837 362.54C265.693 318.304 260.289 311.323 259.172 310.282C257.929 309.129 253.338 307.68 249.5 306.537C248.192 306.148 246.971 305.794 246 305.5C246 305.5 245 311 238.5 311C232 311 231 305.5 231 305.5C230.035 305.792 228.812 306.089 227.5 306.397C223.619 307.309 218.966 308.326 217.954 309.663C215.542 312.863 214.775 319.282 213.045 323.021C212.586 324.013 212.746 325.075 212.377 326.027C211.597 328.021 210.596 329.786 209.376 331.533C206.742 335.295 200.159 340.368 197.847 344.146C197.899 344.081 207.855 342.647 209.385 349.172C210.404 353.535 208.728 358.078 208.518 362.54C208.518 362.54 218.684 362.54 218.688 362.528L218.684 362.55L238.251 362.488L257.667 362.55C257.667 362.55 257.667 362.528 257.667 362.54H267.837Z" fill="#769BE9"/>
<path d="M267.837 362.54C265.693 318.304 260.289 311.323 259.172 310.282C257.929 309.129 253.338 307.68 249.5 306.537C248.192 306.148 246.971 305.794 246 305.5C246 305.5 245 311 238.5 311C232 311 231 305.5 231 305.5C230.035 305.792 228.812 306.089 227.5 306.397C223.619 307.309 218.966 308.326 217.954 309.663C215.542 312.863 214.775 319.282 213.045 323.021C212.586 324.013 212.746 325.075 212.377 326.027C211.597 328.021 210.596 329.786 209.376 331.533C206.742 335.295 200.159 340.368 197.847 344.146C197.899 344.081 207.855 342.647 209.385 349.172C210.404 353.535 208.728 358.078 208.518 362.54C208.518 362.54 218.684 362.54 218.688 362.528L218.684 362.55L238.251 362.488L257.667 362.55C257.667 362.55 257.667 362.528 257.667 362.54H267.837Z" fill="url(#paint2_linear)" fill-opacity="0.2"/>
<path d="M258.262 283.208C257.986 283.205 257.722 283.227 257.466 283.288C257.612 274.192 254.21 259.466 241.733 259.367C238.659 259.341 235.455 259.181 232.543 259.909C221.144 262.765 219.035 273.726 219.188 283.288C219.188 283.288 218.286 282.619 218.01 282.621C216.12 282.649 215.797 284.098 215.82 285.864C215.852 287.636 219.733 289.414 220.244 289.119C221.988 294.195 229.401 303.015 238.326 303.171C247.251 303.015 254.666 294.195 256.408 289.119C256.924 289.414 257.517 289.603 258.162 289.61C260.052 289.635 261.014 286.331 261.044 284.559C261.074 282.792 260.157 283.235 258.262 283.208Z" fill="#EFC29C"/>
<path d="M226.446 278.777C227.353 277.425 230.838 276.139 232.776 278.415M250.448 278.777C249.54 277.425 246.058 276.139 244.122 278.415" stroke="#131B30" stroke-width="2" stroke-linecap="round" stroke-linejoin="round"/>
<path d="M232.092 283.957C232.06 284.873 231.243 285.599 230.297 285.565C229.337 285.53 228.601 284.752 228.639 283.835C228.678 282.913 229.474 282.19 230.434 282.224C231.385 282.259 232.133 283.034 232.092 283.957Z" fill="#131B30"/>
<path d="M248.003 284.058C247.885 284.972 247.032 285.648 246.079 285.555C245.135 285.463 244.451 284.654 244.565 283.733C244.669 282.815 245.532 282.145 246.485 282.236C247.436 282.319 248.122 283.139 248.003 284.058Z" fill="#131B30"/>
<path d="M256.344 286.295L256.185 275.402C256.185 275.402 251.019 269.07 244.308 267.491C242.9 267.364 237.823 267.13 237.823 267.13C237.823 267.13 232.42 267.491 230.625 264.354C230.625 264.354 225.575 269.003 224.134 270.733C224.134 270.733 224.855 266.397 226.792 263.249C226.792 263.249 220.59 270.986 220.909 284.559L219.091 283.342L215.288 269.879C215.288 269.879 217.844 263.881 223.436 261.356L228.708 252.989C228.708 252.989 234.459 250.149 248.678 254.094C248.678 254.094 255.77 257.73 259.217 258.198C259.678 258.261 254.11 259.46 254.11 259.46C255.745 260.553 257.366 261.829 258.634 263.287C259.295 264.051 260.549 264.985 260.499 265.931C260.453 266.788 259.131 268.017 258.36 268.388C259.005 269.449 259.687 270.164 260.467 271.022C261.028 271.638 261.165 271.446 261.238 272.354C261.327 273.479 260.873 274.849 260.697 275.963C260.472 277.409 260.499 282.22 259.167 283.208C258.524 283.68 256.344 286.295 256.344 286.295Z" fill="#131B30"/>
<path d="M236.616 343.71C236.616 344.596 237.391 345.317 238.344 345.317C239.307 345.317 240.079 344.596 240.079 343.71C240.079 342.826 239.307 342.104 238.344 342.104C237.391 342.104 236.616 342.826 236.616 343.71Z" fill="#131B30"/>
<path d="M236.616 355.503C236.616 356.394 237.391 357.11 238.344 357.11C239.307 357.11 240.079 356.394 240.079 355.503C240.079 354.619 239.307 353.902 238.344 353.902C237.391 353.902 236.616 354.619 236.616 355.503Z" fill="#131B30"/>
<path d="M255.2 329.379L257.27 362.047M220.959 329.379L218.887 362.047L220.959 329.379Z" stroke="#131B30" stroke-width="3.927" stroke-linecap="round" stroke-linejoin="round"/>
<path d="M273.162 361.45H204.681L208.446 345.352H269.401L273.162 361.45Z" fill="#C4C5C4"/>
<path d="M270.081 360.075H207.005L204.681 324.05H272.407L270.081 360.075Z" fill="#8A8B8A"/>
<path d="M204.681 324.05H272.407L269.662 322.609H207.153L204.681 324.05Z" fill="#C4C5C4"/>
<path d="M204.681 361.45H273.162V364.345H204.681V361.45Z" fill="#777776"/>
<path d="M249.351 368H228.457L230.214 345.665H247.594L249.351 368Z" fill="#777776"/>
<path d="M230.258 345.665H247.55L247.674 347.106H230.13L230.258 345.665Z" fill="#C4C5C4"/>
<path d="M193 228.5H115C114.172 228.5 113.5 229.172 113.5 230L113.5 273.172C113.5 274 114.172 274.672 115 274.672H154H173.942C174.398 274.672 174.846 274.796 175.236 275.032L184.664 280.736C185.664 281.341 186.941 280.621 186.941 279.453V277.172C186.941 275.791 188.06 274.672 189.441 274.672H193C193.828 274.672 194.5 274 194.5 273.172V230C194.5 229.172 193.828 228.5 193 228.5Z" stroke="#255124"/>
<path d="M193 231C193 230.448 192.552 230 192 230L116 230C115.448 230 115 230.448 115 231V271.866C115 272.418 115.448 272.866 116 272.866H154H175.777C175.966 272.866 176.15 272.919 176.31 273.02L184.277 278.035C184.943 278.454 185.809 277.976 185.809 277.189V273.866C185.809 273.314 186.257 272.866 186.809 272.866H192C192.552 272.866 193 272.418 193 271.866V231Z" fill="white"/>
<path d="M144.254 243.58H141.344L140.594 245H139.404L143.124 238.04H144.444L145.704 245H144.504L144.254 243.58ZM144.104 242.69L143.534 239.42L141.814 242.69H144.104ZM147.227 241.51C147.347 240.83 147.61 240.22 148.017 239.68C148.43 239.14 148.934 238.72 149.527 238.42C150.127 238.113 150.75 237.96 151.397 237.96C152.137 237.96 152.764 238.143 153.277 238.51C153.797 238.87 154.127 239.383 154.267 240.05H152.897C152.77 239.703 152.564 239.443 152.277 239.27C151.99 239.09 151.637 239 151.217 239C150.757 239 150.327 239.103 149.927 239.31C149.534 239.517 149.2 239.81 148.927 240.19C148.66 240.57 148.484 241.01 148.397 241.51C148.364 241.73 148.347 241.917 148.347 242.07C148.347 242.67 148.527 243.147 148.887 243.5C149.247 243.853 149.727 244.03 150.327 244.03C150.947 244.03 151.484 243.857 151.937 243.51C152.39 243.157 152.71 242.68 152.897 242.08H150.287L150.447 241.19H154.277L154.117 242.08C153.95 242.62 153.67 243.117 153.277 243.57C152.884 244.023 152.414 244.387 151.867 244.66C151.327 244.927 150.754 245.06 150.147 245.06C149.574 245.06 149.06 244.94 148.607 244.7C148.154 244.46 147.8 244.123 147.547 243.69C147.294 243.257 147.167 242.757 147.167 242.19C147.167 241.977 147.187 241.75 147.227 241.51ZM157.291 238.05L156.061 245H154.921L156.151 238.05H157.291ZM159.058 244.13H161.408L161.248 245H157.758L158.988 238.05H160.128L159.058 244.13ZM164.611 238.93L164.241 241.04H166.641L166.491 241.92H164.091L163.701 244.11H166.401L166.241 245H162.401L163.631 238.04H167.471L167.311 238.93H164.611Z" fill="#4E71BC"/>
<rect x="119" y="250" width="15" height="15" rx="2" fill="#769BE9" fill-opacity="0.24"/>
<rect x="137" y="250" width="15" height="15" rx="2" fill="#769BE9" fill-opacity="0.48"/>
<rect x="155" y="250" width="15" height="15" rx="2" fill="#769BE9" fill-opacity="0.76"/>
<rect x="173" y="250" width="15" height="15" rx="2" fill="#769BE9"/>
<rect x="420.5" y="268.5" width="99" height="99" rx="24.5" fill="white" stroke="#131B30"/>
<path d="M468 339C479.598 339 489 329.598 489 318C489 306.402 479.598 297 468 297C456.402 297 447 306.402 447 318C447 329.598 456.402 339 468 339Z" stroke="#131B30"/>
<path d="M468 333C476.284 333 483 326.284 483 318C483 309.716 476.284 303 468 303C459.716 303 453 309.716 453 318C453 326.284 459.716 333 468 333Z" stroke="#131B30"/>
<path d="M468.299 327.844C473.821 327.844 478.299 323.367 478.299 317.844C478.299 312.321 473.821 307.844 468.299 307.844C462.776 307.844 458.299 312.321 458.299 317.844C458.299 323.367 462.776 327.844 468.299 327.844Z" fill="#769BE9" fill-opacity="0.24"/>
<path d="M469.466 316.793L492.424 293.903M469.466 316.793L469.215 318.101C469.132 318.534 468.746 318.849 468.302 318.849C467.797 318.849 467.382 318.441 467.382 317.939C467.382 317.503 467.694 317.127 468.126 317.046L469.466 316.793ZM492.424 293.903L492.364 293.851C491.875 293.441 491.825 292.708 492.253 292.234L497.673 286.244C498.264 285.591 499.271 285.523 499.946 286.091C500.696 286.722 500.721 287.864 500 288.528L494.062 293.992C493.625 294.394 492.949 294.392 492.515 293.987L492.424 293.903Z" stroke="#769BE9" stroke-width="2"/>
<defs>
<linearGradient id="paint0_linear" x1="347" y1="325.32" x2="347" y2="343.18" gradientUnits="userSpaceOnUse">
<stop stop-color="#769BE9"/>
<stop offset="1" stop-color="#4D66BF"/>
</linearGradient>
<linearGradient id="paint1_linear" x1="347" y1="113.82" x2="347" y2="143.9" gradientUnits="userSpaceOnUse">
<stop stop-color="#769BE9"/>
<stop offset="1" stop-color="#4D66BF"/>
</linearGradient>
<linearGradient id="paint2_linear" x1="232.842" y1="305.5" x2="232.842" y2="362.55" gradientUnits="userSpaceOnUse">
<stop stop-color="#769BE9"/>
<stop offset="1" stop-color="#4D66BF"/>
</linearGradient>
</defs>
</svg>
