<svg width="640" height="480" viewBox="0 0 640 480" fill="none" xmlns="http://www.w3.org/2000/svg">
<path d="M0 0L639.999 0L639.999 480L0 480L0 0Z" fill="#E7EEFF" fill-opacity="0.64"/>
<path d="M0 0L639.999 0L639.999 480L0 480L0 0Z" stroke="white"/>
<path fill-rule="evenodd" clip-rule="evenodd" d="M201.693 315.268L255.974 284.139L255.792 221.566L201.33 190.122L147.049 221.251L147.231 283.824L201.693 315.268ZM201.651 300.828L243.406 276.883L243.266 228.749L201.372 204.562L159.618 228.507L159.757 276.64L201.651 300.828Z" fill="white" fill-opacity="0.72"/>
<path d="M243.406 276.883L201.651 300.828L159.757 276.64L159.618 228.507L201.372 204.562L243.266 228.749L243.406 276.883Z" fill="white" fill-opacity="0.72"/>
<path d="M165.809 304.292H197.387H231.071H260.544H292.122C292.122 304.292 291.268 309.906 288.708 309.906C286.148 309.906 171.784 309.906 169.223 309.906C166.663 309.906 165.809 304.292 165.809 304.292Z" stroke="#131B30" stroke-opacity="0.96" stroke-linecap="round" stroke-linejoin="round"/>
<rect x="180.642" y="237.127" width="97.7232" height="64.0095" stroke="#131B30" stroke-opacity="0.96" stroke-linecap="round" stroke-linejoin="round"/>
<path d="M184.756 296.573H273.877V242.539H251.597H240.457H229.317H218.177H207.037H184.756V296.573Z" fill="#BAD0FF" stroke="#131B30" stroke-opacity="0.96" stroke-width="2" stroke-linecap="round" stroke-linejoin="round"/>
<path d="M232.448 260.082L225.899 278.268" stroke="#131B30" stroke-opacity="0.96" stroke-width="3"/>
<path d="M238.089 274.819L246.509 268.854L238.089 262.889" stroke="#131B30" stroke-opacity="0.96" stroke-width="3"/>
<path d="M219.142 262.889L210.721 268.854L219.142 274.819" stroke="#131B30" stroke-opacity="0.96" stroke-width="3"/>
<path d="M228.264 239.695C228.264 239.143 228.712 238.695 229.264 238.695H230.071C230.623 238.695 231.071 239.143 231.071 239.695V239.8C231.071 240.352 230.623 240.8 230.071 240.8H229.264C228.712 240.8 228.264 240.352 228.264 239.8V239.695Z" stroke="#131B30"/>
<path d="M499.485 314.116V317.547M140.898 314.116V315.832M140.898 315.832V317.547M140.898 315.832H140.547M140.898 315.832H230.72M320.542 315.832V314.116M320.542 315.832V317.547M320.542 315.832H230.72M320.542 315.832H410.189M499.836 315.832H410.189M230.72 315.832V314.428M230.72 315.832V317.235M410.189 315.832V314.428M410.189 315.832V317.235" stroke="#131B30" stroke-opacity="0.96"/>
<rect x="122.1" y="312.511" width="395.481" height="6.71911" rx="2.5" stroke="#131B30" stroke-opacity="0.96"/>
<path d="M365.021 287.37C364.798 287.37 364.601 287.518 364.54 287.733L361.125 299.701C361.082 299.852 361.112 300.014 361.207 300.139C361.301 300.264 361.449 300.338 361.606 300.338H395.677C395.835 300.338 395.984 300.263 396.078 300.136C396.173 300.009 396.201 299.845 396.156 299.693L392.54 287.725C392.476 287.514 392.282 287.37 392.061 287.37H365.021Z" stroke="#131B30" stroke-opacity="0.96" stroke-linejoin="round"/>
<path d="M339.923 305.062C339.748 305.062 339.586 305.153 339.495 305.303L337.298 308.946C337.205 309.1 337.202 309.293 337.291 309.45C337.379 309.607 337.546 309.704 337.726 309.704H419.846C420.029 309.704 420.197 309.604 420.285 309.444C420.373 309.284 420.366 309.089 420.268 308.935L417.938 305.292C417.846 305.149 417.687 305.062 417.517 305.062H339.923Z" stroke="#131B30" stroke-opacity="0.96" stroke-linejoin="round"/>
<rect x="306.358" y="185.9" width="144.856" height="96.7453" rx="7.5" stroke="#131B30" stroke-opacity="0.96" stroke-linecap="round" stroke-linejoin="round"/>
<rect x="377.032" y="279.029" width="2.80695" height="2.10521" rx="1" stroke="#131B30"/>
<path d="M312.472 273.626C312.472 275.835 314.263 277.626 316.472 277.626H441.101C443.31 277.626 445.101 275.835 445.101 273.626V195.312C445.101 193.103 443.31 191.312 441.101 191.312H411.944H395.365H378.787H362.208H345.629H316.472C314.263 191.312 312.472 193.103 312.472 195.312V273.626Z" fill="#BAD0FF" stroke="#131B30" stroke-opacity="0.96" stroke-width="2" stroke-linecap="round" stroke-linejoin="round"/>
<path d="M362.859 251.271H363.287L363.362 251.695L364.41 257.527C364.88 260.151 368.081 261.14 369.92 259.246L377.52 251.425L377.67 251.271H377.884H394.199C398.615 251.271 402.307 247.919 402.788 243.471L405.401 219.249C405.959 214.077 401.953 209.549 396.812 209.549H359.794C354.656 209.549 350.646 214.074 351.204 219.249L353.818 243.471C354.27 247.658 357.585 251.271 362.859 251.271Z" fill="white" stroke="#131B30" stroke-opacity="0.96" stroke-width="2"/>
<path d="M380.304 237.929H380.549V237.444H380.304V237.929ZM376.512 237.444H376.266V237.929H376.512V237.444ZM380.304 239.124H380.549V238.639H380.304V239.124ZM376.512 238.639H376.266V239.124H376.512V238.639ZM379.356 240.319H379.602V239.834H379.356V240.319ZM377.697 239.834H377.451V240.319H377.697V239.834ZM375.433 235.805L375.612 235.638L375.433 235.805ZM383.103 231.187L382.945 231.001L383.103 231.187ZM373.502 231.187L373.66 231.001L373.502 231.187ZM380.304 237.444H376.512V237.929H380.304V237.444ZM380.304 238.639H376.512V239.124H380.304V238.639ZM379.356 239.834H377.697V240.319H379.356V239.834ZM371.554 226.751C371.554 223.544 374.546 220.894 378.302 220.894V220.409C374.333 220.409 371.062 223.221 371.062 226.751H371.554ZM378.302 220.894C382.059 220.894 385.051 223.544 385.051 226.751H385.542C385.542 223.221 382.272 220.409 378.302 220.409V220.894ZM385.051 226.751C385.051 228.419 384.247 229.929 382.945 231.001L383.26 231.373C384.66 230.221 385.542 228.58 385.542 226.751H385.051ZM375.612 235.638C374.872 234.864 374.711 234.033 374.584 233.222C374.461 232.432 374.371 231.587 373.66 231.001L373.344 231.373C373.885 231.819 373.966 232.451 374.098 233.296C374.227 234.12 374.404 235.082 375.254 235.971L375.612 235.638ZM373.66 231.001C372.358 229.929 371.554 228.419 371.554 226.751H371.062C371.062 228.58 371.945 230.221 373.344 231.373L373.66 231.001ZM382.945 231.001C382.719 231.187 382.607 231.51 382.528 231.831C382.447 232.163 382.385 232.577 382.309 232.994C382.152 233.851 381.924 234.782 381.339 235.499L381.722 235.803C382.392 234.982 382.635 233.941 382.793 233.08C382.873 232.639 382.93 232.258 383.006 231.945C383.086 231.62 383.171 231.447 383.26 231.373L382.945 231.001ZM381.339 235.499C380.778 236.186 379.662 236.549 378.485 236.561C377.309 236.573 376.18 236.233 375.612 235.638L375.254 235.971C375.957 236.707 377.25 237.059 378.49 237.046C379.731 237.033 381.027 236.654 381.722 235.803L381.339 235.499Z" stroke="#131B30" stroke-opacity="0.96"/>
<path d="M389.162 227.649C389.162 228.649 389.973 229.459 390.972 229.459C391.972 229.459 392.782 228.649 392.782 227.649C392.782 226.649 391.972 225.839 390.972 225.839C389.973 225.839 389.162 226.649 389.162 227.649Z" stroke="#131B30" stroke-opacity="0.96"/>
<path d="M376.492 227.649C376.492 228.649 377.303 229.459 378.302 229.459C379.302 229.459 380.112 228.649 380.112 227.649C380.112 226.649 379.302 225.839 378.302 225.839C377.303 225.839 376.492 226.649 376.492 227.649Z" stroke="#131B30" stroke-opacity="0.96"/>
<path d="M363.822 227.649C363.822 228.649 364.633 229.459 365.632 229.459C366.632 229.459 367.442 228.649 367.442 227.649C367.442 226.649 366.632 225.839 365.632 225.839C364.633 225.839 363.822 226.649 363.822 227.649Z" stroke="#131B30" stroke-opacity="0.96"/>
<path d="M481.792 305.344C481.792 306.664 481.791 307.591 481.669 308.274C481.552 308.927 481.341 309.272 480.973 309.505C480.559 309.766 479.88 309.932 478.703 310.018C477.542 310.103 475.984 310.108 473.872 310.108C471.759 310.108 470.201 310.107 469.038 310.027C467.86 309.947 467.18 309.787 466.766 309.532C466.401 309.306 466.191 308.97 466.074 308.324C465.953 307.647 465.951 306.725 465.951 305.404C465.951 303.194 466.749 301.293 468.122 299.945C469.495 298.597 471.47 297.775 473.872 297.775C476.393 297.775 478.364 298.587 479.704 299.914C481.044 301.241 481.792 303.124 481.792 305.344Z" fill="white" stroke="#131B30"/>
<path d="M554.4 340.6L622 380L640 369.509L640 351.324L622 361.815L570 331.508L570 270.892L622 240.585L640 251.076L640 232.891L622 222.4L554.4 261.8L554.4 340.6Z" fill="white" fill-opacity="0.72"/>
<path d="M243.6 381.6L176 421L176 480L191.6 480L191.6 430.092L243.6 399.785L295.6 430.092L295.6 480L311.2 480L311.2 421L243.6 381.6Z" fill="white" fill-opacity="0.72"/>
<path fill-rule="evenodd" clip-rule="evenodd" d="M52.8007 139.324L86.8045 159.089L120.808 139.324L120.808 99.7943L86.8045 80.0294L52.8007 99.7943L52.8007 139.324ZM60.6477 134.763L86.8045 149.967L112.961 134.763L112.961 104.355L86.8045 89.1516L60.6477 104.355L60.6477 134.763Z" fill="white" fill-opacity="0.72"/>
<path fill-rule="evenodd" clip-rule="evenodd" d="M103.201 77.8L120.801 88L138.401 77.8L138.401 57.4L120.801 47.2L103.201 57.4L103.201 77.8ZM107.262 75.4462L120.801 83.2923L134.339 75.4462L134.339 59.7539L120.801 51.9077L107.262 59.7539L107.262 75.4462Z" fill="white" fill-opacity="0.72"/>
<path fill-rule="evenodd" clip-rule="evenodd" d="M597.467 113.087L611.75 104.872L611.723 88.3937L597.412 80.1312L583.128 88.3467L583.156 104.825L597.467 113.087ZM597.46 109.285L608.448 102.965L608.427 90.2896L597.419 83.9338L586.431 90.2535L586.452 102.929L597.46 109.285Z" fill="white" fill-opacity="0.72"/>
<path fill-rule="evenodd" clip-rule="evenodd" d="M578.266 84.2872L592.55 76.0716L592.523 59.5937L578.212 51.3312L563.928 59.5467L563.955 76.0247L578.266 84.2872ZM578.26 80.4845L589.248 74.1649L589.227 61.4896L578.218 55.1338L567.231 61.4535L567.252 74.1288L578.26 80.4845Z" fill="white" fill-opacity="0.72"/>
</svg>
