<svg width="25" height="38" viewBox="0 0 25 38" fill="none" xmlns="http://www.w3.org/2000/svg">
<path d="M0.8 6.88974C0.8 3.71109 2.90588 1.17906 5.94577 0.985959C7.66274 0.876895 9.82271 0.8 12.5 0.8C15.1773 0.8 17.3373 0.876895 19.0542 0.985959C22.0941 1.17905 24.2 3.7111 24.2 6.88975V29.5C24.2 33.4764 20.9764 36.7 17 36.7H8C4.02355 36.7 0.8 33.4765 0.8 29.5V6.88974Z" fill="#E2F3F6" stroke="#31649F" stroke-width="1.6"/>
<rect x="2.34375" y="4.6875" width="20.3125" height="24.2188" rx="0.5" fill="white"/>
<rect x="2.34375" y="4.6875" width="20.3125" height="24.2188" rx="0.5" fill="url(#paint0_linear)" fill-opacity="0.01"/>
<rect x="2.34375" y="4.6875" width="20.3125" height="24.2188" rx="0.5" stroke="#31649F" stroke-width="0.64"/>
<rect x="8" y="2" width="9" height="2" rx="1" fill="#B3C8DB"/>
<circle cx="12.5" cy="32.6391" r="1.70833" fill="white" stroke="#31649F" stroke-width="0.75"/>
<defs>
<linearGradient id="paint0_linear" x1="2.8054" y1="28.9063" x2="21.9587" y2="4.14788" gradientUnits="userSpaceOnUse">
<stop stop-color="#E2F3F6"/>
<stop offset="1" stop-color="#B3C8DB"/>
</linearGradient>
</defs>
</svg>
