<svg width="16" height="16" viewBox="0 0 16 16" fill="none" xmlns="http://www.w3.org/2000/svg">
<path d="M8 0C3.584 0 0 3.584 0 8C0 12.416 3.584 16 8 16C12.416 16 16 12.416 16 8C16 3.584 12.416 0 8 0ZM4.8 12.4C3.696 12.4 2.8 11.504 2.8 10.4C2.8 9.296 3.696 8.4 4.8 8.4C5.904 8.4 6.8 9.296 6.8 10.4C6.8 11.504 5.904 12.4 4.8 12.4ZM6 4.8C6 3.696 6.896 2.8 8 2.8C9.104 2.8 10 3.696 10 4.8C10 5.904 9.104 6.8 8 6.8C6.896 6.8 6 5.904 6 4.8ZM11.2 12.4C10.096 12.4 9.2 11.504 9.2 10.4C9.2 9.296 10.096 8.4 11.2 8.4C12.304 8.4 13.2 9.296 13.2 10.4C13.2 11.504 12.304 12.4 11.2 12.4Z" fill="white"/>
</svg>
